# xmcd
#
# Track frame offsets: 
#        150
#        12860
#        22950
#        33113
#        44400
#        54818
#        64688
#        74473
#        86793
#        98868
#
# Disc length: 1462 seconds
#
# Revision: 2
# Processed by: cddbd v1.5.2PL0 Copyright (c) Steve Scherf et al.
# Submitted via: ExactAudioCopy v1.1
#
DISCID=7605b40a
DTITLE=Johnny Cash - Johnny Cash Super Hits
DYEAR=2004
DGENRE=Country
TTITLE0=Folsom Prison Blues
TTITLE1=Goodbye, Little Darlin'
TTITLE2=There You Go
TTITLE3=Big River
TTITLE4=Straight A's In Love
TTITLE5=Rock Island Line
TTITLE6=Ballad Of A Teenage Queen
TTITLE7=Next In Line
TTITLE8=You're The Nearest Thing To Heaven
TTITLE9=I Love You Because
EXTD=Super Hits	\nJohnny Cash/Folsom Prisom Blues\nJohnny Cash/Goodbye
EXTD=, Little Darlin`,Goodby\nJohnny Cash/There You Go\nJohnny Cash/Bi
EXTD=g River\nJohnny Cash/Straight A`s In Love\nJohnny Cash/Rock Islan
EXTD=d Line\nJohnny Cash/Ballad of a Teenage Queen\nJohnny Cash/Next I
EXTD=n Line\nJohnny Cash/You're The Nearest Thing To Heaven\nJohnny Ca
EXTD=sh/I Love You Because \nSuper Hits	on the ever geeen label
EXTT0=
EXTT1=
EXTT2=
EXTT3=
EXTT4=
EXTT5=
EXTT6=
EXTT7=
EXTT8=
EXTT9=
PLAYORDER=
